<svg xmlns="http://www.w3.org/2000/svg" xmlns:xlink="http://www.w3.org/1999/xlink" width="500" zoomAndPan="magnify" viewBox="0 0 375 374.999991" height="500" preserveAspectRatio="xMidYMid meet" version="1.0"><defs><g/><clipPath id="id1"><path d="M 121 92.832031 L 254 92.832031 L 254 118 L 121 118 Z M 121 92.832031 " clip-rule="nonzero"/></clipPath><clipPath id="id2"><path d="M 94 154 L 281 154 L 281 215.832031 L 94 215.832031 Z M 94 154 " clip-rule="nonzero"/></clipPath><clipPath id="id3"><path d="M 93.75 122 L 281.25 122 L 281.25 188 L 93.75 188 Z M 93.75 122 " clip-rule="nonzero"/></clipPath></defs><g clip-path="url(#id1)"><path fill="#2e3b42" d="M 139.632812 116.714844 L 235.382812 116.714844 C 240.875 116.714844 247.472656 117.148438 253.835938 117.695312 L 247.605469 104.972656 C 247.164062 104.070312 246.667969 103.203125 246.109375 102.371094 C 245.550781 101.542969 244.9375 100.753906 244.269531 100.007812 C 243.597656 99.261719 242.882812 98.566406 242.117188 97.921875 C 241.351562 97.273438 240.542969 96.6875 239.695312 96.15625 C 238.847656 95.621094 237.964844 95.152344 237.050781 94.742188 C 236.136719 94.335938 235.199219 93.992188 234.238281 93.714844 C 233.277344 93.4375 232.300781 93.230469 231.308594 93.089844 C 230.316406 92.949219 229.324219 92.878906 228.320312 92.875 L 146.65625 92.875 C 145.65625 92.875 144.660156 92.945312 143.667969 93.085938 C 142.675781 93.226562 141.699219 93.433594 140.734375 93.710938 C 139.773438 93.988281 138.835938 94.328125 137.917969 94.738281 C 137.003906 95.144531 136.121094 95.617188 135.273438 96.148438 C 134.425781 96.679688 133.617188 97.269531 132.851562 97.914062 C 132.085938 98.5625 131.367188 99.257812 130.695312 100.003906 C 130.027344 100.75 129.414062 101.539062 128.855469 102.371094 C 128.296875 103.203125 127.796875 104.070312 127.359375 104.972656 L 121.183594 117.695312 C 127.539062 117.148438 134.140625 116.714844 139.632812 116.714844 Z M 139.632812 116.714844 " fill-opacity="1" fill-rule="nonzero"/></g><g clip-path="url(#id2)"><path fill="#2e3b42" d="M 239.183594 193.4375 C 225.042969 193.4375 214.164062 189.664062 205.917969 181.917969 C 198.664062 175.097656 194.589844 166.199219 191.253906 157.601562 L 191.21875 157.5 L 191.21875 157.390625 C 190.648438 155.757812 189.117188 154.273438 187.527344 154.117188 C 185.933594 154.273438 184.402344 155.757812 183.839844 157.390625 L 183.804688 157.5 L 183.761719 157.601562 C 180.433594 166.199219 176.347656 175.097656 169.101562 181.917969 C 160.855469 189.683594 149.972656 193.4375 135.835938 193.4375 C 124.75 193.4375 103.886719 189.3125 94.921875 178.09375 L 94.921875 188.050781 C 94.921875 188.933594 95.007812 189.808594 95.179688 190.671875 C 95.351562 191.539062 95.605469 192.378906 95.945312 193.195312 C 96.28125 194.011719 96.695312 194.785156 97.183594 195.519531 C 97.671875 196.253906 98.230469 196.933594 98.851562 197.558594 C 99.476562 198.179688 100.15625 198.738281 100.886719 199.230469 C 101.621094 199.71875 102.394531 200.132812 103.207031 200.472656 C 104.023438 200.808594 104.863281 201.0625 105.726562 201.234375 C 106.589844 201.40625 107.464844 201.492188 108.34375 201.492188 L 108.34375 212.46875 C 108.34375 212.902344 108.429688 213.324219 108.59375 213.726562 C 108.761719 214.128906 109 214.484375 109.308594 214.792969 C 109.613281 215.101562 109.96875 215.339844 110.371094 215.507812 C 110.773438 215.675781 111.195312 215.757812 111.628906 215.757812 L 133.5 215.757812 C 133.9375 215.757812 134.355469 215.675781 134.757812 215.507812 C 135.160156 215.339844 135.515625 215.101562 135.824219 214.792969 C 136.132812 214.484375 136.367188 214.128906 136.535156 213.726562 C 136.703125 213.324219 136.785156 212.902344 136.785156 212.46875 L 136.785156 207.507812 C 136.785156 207 136.882812 206.511719 137.074219 206.046875 C 137.269531 205.578125 137.542969 205.164062 137.902344 204.808594 C 138.257812 204.449219 138.671875 204.175781 139.136719 203.980469 C 139.605469 203.785156 140.089844 203.691406 140.597656 203.691406 L 234.382812 203.691406 C 234.886719 203.691406 235.375 203.785156 235.839844 203.980469 C 236.308594 204.175781 236.71875 204.449219 237.078125 204.808594 C 237.433594 205.164062 237.710938 205.578125 237.902344 206.046875 C 238.097656 206.511719 238.191406 207 238.191406 207.507812 L 238.191406 212.46875 C 238.195312 212.902344 238.277344 213.324219 238.445312 213.726562 C 238.613281 214.128906 238.847656 214.484375 239.15625 214.792969 C 239.464844 215.101562 239.820312 215.339844 240.222656 215.503906 C 240.625 215.671875 241.042969 215.757812 241.476562 215.757812 L 263.421875 215.757812 C 263.855469 215.757812 264.273438 215.671875 264.675781 215.503906 C 265.078125 215.339844 265.433594 215.101562 265.742188 214.792969 C 266.050781 214.484375 266.285156 214.128906 266.453125 213.726562 C 266.621094 213.324219 266.703125 212.902344 266.707031 212.46875 L 266.707031 201.492188 C 267.585938 201.492188 268.460938 201.40625 269.324219 201.234375 C 270.1875 201.0625 271.027344 200.808594 271.839844 200.46875 C 272.65625 200.132812 273.429688 199.71875 274.160156 199.226562 C 274.894531 198.738281 275.570312 198.179688 276.195312 197.554688 C 276.816406 196.933594 277.375 196.253906 277.863281 195.519531 C 278.351562 194.785156 278.765625 194.011719 279.101562 193.195312 C 279.4375 192.378906 279.691406 191.539062 279.863281 190.671875 C 280.035156 189.808594 280.121094 188.933594 280.121094 188.050781 L 280.121094 178.09375 C 271.128906 189.3125 250.261719 193.4375 239.183594 193.4375 Z M 239.183594 193.4375 " fill-opacity="1" fill-rule="nonzero"/></g><g clip-path="url(#id3)"><path fill="#37b34a" d="M 281.035156 129.316406 C 280.820312 127.15625 280.199219 125.992188 277.441406 125.71875 C 276.109375 125.71875 272.515625 125.335938 267.964844 124.851562 C 258.890625 123.917969 245.179688 122.46875 235.382812 122.46875 C 223.878906 122.46875 213.707031 124.765625 204.71875 126.789062 C 198.054688 128.289062 192.339844 129.597656 187.585938 129.597656 L 187.390625 129.597656 C 182.648438 129.597656 176.925781 128.308594 170.296875 126.8125 C 161.316406 124.789062 151.128906 122.492188 139.632812 122.492188 C 129.796875 122.492188 116.085938 123.929688 107.015625 124.894531 C 102.464844 125.378906 98.875 125.761719 97.539062 125.761719 C 94.777344 126.011719 94.167969 127.199219 93.945312 129.359375 C 93.75 131.101562 93.75 135.300781 93.75 138.074219 C 93.75 140.234375 94.855469 140.953125 95.835938 141.160156 C 98.0625 141.988281 99.199219 143.378906 99.703125 145.886719 C 100.300781 150.4375 103.175781 165.046875 105.527344 171.121094 C 110.652344 183.363281 125.039062 187.683594 135.800781 187.683594 C 163.574219 187.683594 172.050781 171.800781 178.371094 155.496094 C 180.484375 149.355469 182.617188 144.265625 187.390625 144.265625 L 187.585938 144.265625 C 192.367188 144.265625 194.503906 149.355469 196.609375 155.496094 C 202.929688 171.800781 211.410156 187.683594 239.183594 187.683594 C 249.96875 187.683594 264.347656 183.363281 269.453125 171.121094 C 271.804688 165.046875 274.6875 150.4375 275.277344 145.921875 C 275.777344 143.414062 276.90625 142.027344 279.152344 141.199219 C 280.121094 141.003906 281.226562 140.304688 281.226562 138.109375 C 281.226562 135.300781 281.226562 131.101562 281.035156 129.316406 Z M 166.613281 167.480469 C 157.535156 180.929688 145.980469 182.789062 134.835938 182.789062 C 112.550781 182.789062 107.847656 166.304688 107.847656 152.480469 C 107.847656 130.160156 117.042969 127.941406 139.632812 127.941406 C 155.960938 127.941406 173.550781 133.039062 173.550781 144.222656 C 173.550781 152.0625 170.042969 161.871094 166.613281 167.480469 Z M 240.140625 182.789062 C 229.003906 182.789062 217.445312 180.929688 208.371094 167.480469 C 204.941406 161.871094 201.441406 152.0625 201.441406 144.222656 C 201.441406 133.039062 219.019531 127.941406 235.34375 127.941406 C 257.933594 127.941406 267.136719 130.160156 267.136719 152.480469 C 267.136719 166.320312 262.449219 182.789062 240.140625 182.789062 Z M 240.140625 182.789062 " fill-opacity="1" fill-rule="nonzero"/></g><path fill="#253138" d="M 142.359375 138.359375 C 141.417969 138.359375 140.488281 138.453125 139.566406 138.636719 C 138.648438 138.820312 137.753906 139.089844 136.886719 139.453125 C 136.019531 139.8125 135.195312 140.253906 134.414062 140.777344 C 133.632812 141.296875 132.910156 141.894531 132.246094 142.558594 C 131.582031 143.222656 130.992188 143.945312 130.46875 144.730469 C 129.949219 145.511719 129.507812 146.335938 129.148438 147.207031 C 128.789062 148.074219 128.519531 148.96875 128.335938 149.894531 C 128.15625 150.816406 128.0625 151.746094 128.066406 152.6875 C 128.066406 153.628906 128.160156 154.558594 128.34375 155.480469 C 128.527344 156.402344 128.796875 157.296875 129.160156 158.167969 C 129.519531 159.035156 129.960938 159.859375 130.484375 160.640625 C 131.003906 161.421875 131.597656 162.144531 132.265625 162.808594 C 132.929688 163.472656 133.652344 164.066406 134.433594 164.589844 C 135.214844 165.109375 136.039062 165.550781 136.90625 165.910156 C 137.777344 166.265625 138.671875 166.539062 139.589844 166.71875 C 140.511719 166.902344 141.441406 166.992188 142.382812 166.988281 C 143.320312 166.988281 144.25 166.894531 145.171875 166.710938 C 146.089844 166.523438 146.984375 166.25 147.851562 165.890625 C 148.71875 165.527344 149.542969 165.085938 150.320312 164.5625 C 151.101562 164.039062 151.824219 163.441406 152.484375 162.777344 C 153.148438 162.109375 153.738281 161.386719 154.257812 160.601562 C 154.777344 159.820312 155.21875 158.992188 155.574219 158.121094 C 155.933594 157.253906 156.203125 156.355469 156.382812 155.433594 C 156.5625 154.511719 156.652344 153.578125 156.648438 152.640625 C 156.648438 151.699219 156.554688 150.773438 156.371094 149.851562 C 156.183594 148.933594 155.914062 148.039062 155.550781 147.171875 C 155.191406 146.304688 154.75 145.484375 154.230469 144.703125 C 153.707031 143.925781 153.113281 143.203125 152.453125 142.539062 C 151.789062 141.878906 151.066406 141.285156 150.285156 140.765625 C 149.507812 140.246094 148.683594 139.804688 147.820312 139.445312 C 146.953125 139.089844 146.0625 138.816406 145.140625 138.636719 C 144.222656 138.453125 143.292969 138.359375 142.359375 138.359375 Z M 142.359375 155.203125 C 141.867188 155.203125 141.382812 155.152344 140.902344 155.054688 C 140.425781 154.960938 139.957031 154.816406 139.507812 154.628906 C 139.054688 154.441406 138.625 154.210938 138.21875 153.9375 C 137.8125 153.664062 137.4375 153.355469 137.089844 153.007812 C 136.746094 152.660156 136.4375 152.28125 136.164062 151.875 C 135.894531 151.464844 135.664062 151.035156 135.480469 150.582031 C 135.292969 150.128906 135.152344 149.660156 135.058594 149.179688 C 134.960938 148.699219 134.914062 148.214844 134.917969 147.722656 C 134.917969 147.234375 134.964844 146.75 135.0625 146.269531 C 135.160156 145.789062 135.300781 145.320312 135.488281 144.867188 C 135.675781 144.414062 135.90625 143.984375 136.179688 143.578125 C 136.453125 143.171875 136.761719 142.792969 137.109375 142.449219 C 137.453125 142.101562 137.832031 141.792969 138.238281 141.523438 C 138.644531 141.25 139.074219 141.019531 139.527344 140.832031 C 139.980469 140.648438 140.445312 140.503906 140.925781 140.410156 C 141.40625 140.316406 141.890625 140.269531 142.382812 140.269531 C 142.871094 140.269531 143.355469 140.316406 143.835938 140.414062 C 144.316406 140.511719 144.78125 140.652344 145.234375 140.839844 C 145.683594 141.027344 146.113281 141.257812 146.519531 141.53125 C 146.929688 141.804688 147.304688 142.113281 147.648438 142.460938 C 147.996094 142.808594 148.304688 143.1875 148.574219 143.59375 C 148.847656 144.003906 149.074219 144.433594 149.261719 144.886719 C 149.449219 145.339844 149.589844 145.804688 149.6875 146.285156 C 149.78125 146.765625 149.828125 147.253906 149.828125 147.742188 C 149.828125 148.234375 149.777344 148.71875 149.683594 149.199219 C 149.585938 149.683594 149.445312 150.148438 149.257812 150.601562 C 149.070312 151.054688 148.839844 151.484375 148.566406 151.890625 C 148.292969 152.300781 147.984375 152.675781 147.636719 153.023438 C 147.289062 153.371094 146.910156 153.679688 146.503906 153.949219 C 146.097656 154.222656 145.667969 154.453125 145.214844 154.640625 C 144.761719 154.828125 144.292969 154.96875 143.8125 155.0625 C 143.332031 155.15625 142.847656 155.203125 142.359375 155.203125 Z M 142.359375 155.203125 " fill-opacity="1" fill-rule="evenodd"/><path fill="#253138" d="M 232.621094 138.359375 C 231.679688 138.359375 230.75 138.449219 229.828125 138.632812 C 228.90625 138.8125 228.011719 139.082031 227.144531 139.441406 C 226.277344 139.800781 225.449219 140.242188 224.667969 140.761719 C 223.886719 141.285156 223.164062 141.875 222.5 142.539062 C 221.832031 143.207031 221.238281 143.929688 220.714844 144.710938 C 220.195312 145.492188 219.753906 146.316406 219.390625 147.1875 C 219.03125 148.054688 218.761719 148.949219 218.574219 149.875 C 218.390625 150.796875 218.300781 151.726562 218.300781 152.667969 C 218.300781 153.609375 218.390625 154.539062 218.574219 155.464844 C 218.757812 156.386719 219.027344 157.28125 219.386719 158.152344 C 219.746094 159.019531 220.1875 159.847656 220.707031 160.628906 C 221.230469 161.410156 221.824219 162.132812 222.488281 162.800781 C 223.152344 163.464844 223.875 164.058594 224.65625 164.582031 C 225.4375 165.101562 226.261719 165.542969 227.128906 165.902344 C 228 166.261719 228.894531 166.535156 229.816406 166.71875 C 230.738281 166.898438 231.667969 166.992188 232.605469 166.988281 C 233.546875 166.988281 234.476562 166.894531 235.398438 166.710938 C 236.316406 166.527344 237.210938 166.253906 238.078125 165.894531 C 238.945312 165.53125 239.769531 165.089844 240.550781 164.566406 C 241.332031 164.039062 242.054688 163.445312 242.714844 162.78125 C 243.378906 162.113281 243.972656 161.386719 244.492188 160.605469 C 245.011719 159.820312 245.449219 158.996094 245.808594 158.125 C 246.164062 157.253906 246.433594 156.359375 246.617188 155.433594 C 246.796875 154.511719 246.886719 153.582031 246.882812 152.640625 C 246.882812 151.703125 246.789062 150.773438 246.605469 149.855469 C 246.421875 148.9375 246.148438 148.042969 245.789062 147.179688 C 245.429688 146.3125 244.988281 145.492188 244.46875 144.714844 C 243.949219 143.933594 243.359375 143.214844 242.695312 142.550781 C 242.035156 141.886719 241.3125 141.296875 240.535156 140.777344 C 239.757812 140.253906 238.9375 139.816406 238.074219 139.457031 C 237.210938 139.097656 236.316406 138.824219 235.402344 138.640625 C 234.484375 138.457031 233.554688 138.363281 232.621094 138.359375 Z M 232.621094 155.203125 C 232.132812 155.203125 231.644531 155.15625 231.164062 155.058594 C 230.6875 154.964844 230.21875 154.820312 229.765625 154.632812 C 229.316406 154.445312 228.886719 154.214844 228.476562 153.945312 C 228.070312 153.671875 227.695312 153.363281 227.347656 153.015625 C 227.003906 152.667969 226.691406 152.289062 226.421875 151.882812 C 226.148438 151.476562 225.917969 151.042969 225.730469 150.589844 C 225.542969 150.136719 225.402344 149.671875 225.308594 149.191406 C 225.210938 148.710938 225.164062 148.222656 225.164062 147.734375 C 225.164062 147.242188 225.214844 146.757812 225.308594 146.277344 C 225.40625 145.796875 225.546875 145.328125 225.734375 144.875 C 225.921875 144.421875 226.152344 143.992188 226.421875 143.585938 C 226.695312 143.175781 227.003906 142.800781 227.351562 142.453125 C 227.699219 142.105469 228.074219 141.796875 228.480469 141.523438 C 228.890625 141.253906 229.320312 141.023438 229.773438 140.835938 C 230.222656 140.648438 230.691406 140.507812 231.171875 140.410156 C 231.652344 140.316406 232.136719 140.269531 232.625 140.269531 C 233.113281 140.269531 233.601562 140.316406 234.082031 140.414062 C 234.558594 140.507812 235.027344 140.652344 235.480469 140.839844 C 235.929688 141.027344 236.359375 141.257812 236.765625 141.53125 C 237.175781 141.804688 237.550781 142.113281 237.898438 142.460938 C 238.242188 142.808594 238.550781 143.183594 238.824219 143.59375 C 239.09375 144 239.324219 144.429688 239.511719 144.882812 C 239.699219 145.335938 239.839844 145.804688 239.933594 146.285156 C 240.03125 146.765625 240.078125 147.253906 240.078125 147.742188 C 240.074219 148.234375 240.027344 148.71875 239.933594 149.199219 C 239.835938 149.679688 239.695312 150.144531 239.507812 150.597656 C 239.320312 151.050781 239.089844 151.480469 238.816406 151.886719 C 238.546875 152.296875 238.234375 152.671875 237.890625 153.019531 C 237.542969 153.363281 237.167969 153.675781 236.761719 153.945312 C 236.355469 154.21875 235.925781 154.449219 235.472656 154.636719 C 235.019531 154.824219 234.554688 154.964844 234.074219 155.058594 C 233.59375 155.15625 233.109375 155.203125 232.621094 155.203125 Z M 232.621094 155.203125 " fill-opacity="1" fill-rule="evenodd"/><g fill="#2e3b42" fill-opacity="1"><g transform="translate(92.296873, 267.91901)"><g><path d="M 17.1875 -24.625 C 15.1875 -24.625 13.625 -23.804688 12.5 -22.171875 C 11.382812 -20.535156 10.828125 -18.28125 10.828125 -15.40625 C 10.828125 -9.425781 13.101562 -6.4375 17.65625 -6.4375 C 19.03125 -6.4375 20.359375 -6.625 21.640625 -7 C 22.929688 -7.382812 24.226562 -7.847656 25.53125 -8.390625 L 25.53125 -1.296875 C 22.9375 -0.148438 20.003906 0.421875 16.734375 0.421875 C 12.046875 0.421875 8.453125 -0.9375 5.953125 -3.65625 C 3.453125 -6.375 2.203125 -10.300781 2.203125 -15.4375 C 2.203125 -18.65625 2.804688 -21.476562 4.015625 -23.90625 C 5.234375 -26.34375 6.976562 -28.21875 9.25 -29.53125 C 11.519531 -30.84375 14.191406 -31.5 17.265625 -31.5 C 20.617188 -31.5 23.828125 -30.769531 26.890625 -29.3125 L 24.3125 -22.703125 C 23.164062 -23.242188 22.019531 -23.695312 20.875 -24.0625 C 19.726562 -24.4375 18.5 -24.625 17.1875 -24.625 Z M 17.1875 -24.625 "/></g></g><g transform="translate(120.525143, 267.91901)"><g><path d="M 18.5625 0 L 16.96875 -3.1875 L 16.796875 -3.1875 C 15.679688 -1.800781 14.539062 -0.851562 13.375 -0.34375 C 12.21875 0.164062 10.71875 0.421875 8.875 0.421875 C 6.613281 0.421875 4.832031 -0.253906 3.53125 -1.609375 C 2.226562 -2.972656 1.578125 -4.882812 1.578125 -7.34375 C 1.578125 -9.90625 2.46875 -11.8125 4.25 -13.0625 C 6.03125 -14.320312 8.613281 -15.03125 12 -15.1875 L 16.015625 -15.3125 L 16.015625 -15.65625 C 16.015625 -17.632812 15.035156 -18.625 13.078125 -18.625 C 11.328125 -18.625 9.097656 -18.03125 6.390625 -16.84375 L 4 -22.328125 C 6.800781 -23.765625 10.335938 -24.484375 14.609375 -24.484375 C 17.703125 -24.484375 20.09375 -23.71875 21.78125 -22.1875 C 23.46875 -20.664062 24.3125 -18.53125 24.3125 -15.78125 L 24.3125 0 Z M 12.40625 -5.4375 C 13.40625 -5.4375 14.265625 -5.753906 14.984375 -6.390625 C 15.703125 -7.023438 16.0625 -7.851562 16.0625 -8.875 L 16.0625 -10.75 L 14.140625 -10.65625 C 11.410156 -10.5625 10.046875 -9.554688 10.046875 -7.640625 C 10.046875 -6.171875 10.832031 -5.4375 12.40625 -5.4375 Z M 12.40625 -5.4375 "/></g></g><g transform="translate(147.627681, 267.91901)"><g><path d="M 17.390625 -24.484375 C 18.117188 -24.484375 18.804688 -24.425781 19.453125 -24.3125 L 19.921875 -24.234375 L 19.1875 -16.390625 C 18.5 -16.566406 17.554688 -16.65625 16.359375 -16.65625 C 14.546875 -16.65625 13.226562 -16.238281 12.40625 -15.40625 C 11.582031 -14.582031 11.171875 -13.390625 11.171875 -11.828125 L 11.171875 0 L 2.875 0 L 2.875 -24.0625 L 9.046875 -24.0625 L 10.34375 -20.21875 L 10.75 -20.21875 C 11.4375 -21.488281 12.398438 -22.515625 13.640625 -23.296875 C 14.878906 -24.085938 16.128906 -24.484375 17.390625 -24.484375 Z M 17.390625 -24.484375 "/></g></g><g transform="translate(168.039544, 267.91901)"><g><path d="M 15.828125 -18.1875 L 29.234375 -18.1875 L 29.234375 -1.4375 C 25.585938 -0.195312 21.582031 0.421875 17.21875 0.421875 C 12.4375 0.421875 8.738281 -0.960938 6.125 -3.734375 C 3.507812 -6.515625 2.203125 -10.472656 2.203125 -15.609375 C 2.203125 -20.617188 3.632812 -24.519531 6.5 -27.3125 C 9.363281 -30.101562 13.367188 -31.5 18.515625 -31.5 C 20.472656 -31.5 22.316406 -31.3125 24.046875 -30.9375 C 25.785156 -30.570312 27.300781 -30.109375 28.59375 -29.546875 L 25.9375 -22.953125 C 23.695312 -24.066406 21.238281 -24.625 18.5625 -24.625 C 16.113281 -24.625 14.21875 -23.828125 12.875 -22.234375 C 11.539062 -20.640625 10.875 -18.363281 10.875 -15.40625 C 10.875 -12.5 11.476562 -10.285156 12.6875 -8.765625 C 13.894531 -7.242188 15.640625 -6.484375 17.921875 -6.484375 C 19.171875 -6.484375 20.320312 -6.601562 21.375 -6.84375 L 21.375 -11.703125 L 15.828125 -11.703125 Z M 15.828125 -18.1875 "/></g></g><g transform="translate(200.239738, 267.91901)"><g><path d="M 14.484375 0.421875 C 10.472656 0.421875 7.359375 -0.640625 5.140625 -2.765625 C 2.929688 -4.898438 1.828125 -7.9375 1.828125 -11.875 C 1.828125 -15.9375 2.851562 -19.050781 4.90625 -21.21875 C 6.957031 -23.394531 9.890625 -24.484375 13.703125 -24.484375 C 17.328125 -24.484375 20.125 -23.535156 22.09375 -21.640625 C 24.070312 -19.753906 25.0625 -17.035156 25.0625 -13.484375 L 25.0625 -9.796875 L 10.21875 -9.796875 C 10.269531 -8.453125 10.757812 -7.394531 11.6875 -6.625 C 12.613281 -5.863281 13.878906 -5.484375 15.484375 -5.484375 C 16.941406 -5.484375 18.28125 -5.617188 19.5 -5.890625 C 20.726562 -6.171875 22.054688 -6.644531 23.484375 -7.3125 L 23.484375 -1.34375 C 22.179688 -0.675781 20.835938 -0.21875 19.453125 0.03125 C 18.066406 0.289062 16.410156 0.421875 14.484375 0.421875 Z M 14 -18.84375 C 13.019531 -18.84375 12.203125 -18.535156 11.546875 -17.921875 C 10.890625 -17.304688 10.503906 -16.335938 10.390625 -15.015625 L 17.515625 -15.015625 C 17.492188 -16.179688 17.164062 -17.109375 16.53125 -17.796875 C 15.90625 -18.492188 15.0625 -18.84375 14 -18.84375 Z M 14 -18.84375 "/></g></g><g transform="translate(227.129873, 267.91901)"><g><path d="M 14.484375 0.421875 C 10.472656 0.421875 7.359375 -0.640625 5.140625 -2.765625 C 2.929688 -4.898438 1.828125 -7.9375 1.828125 -11.875 C 1.828125 -15.9375 2.851562 -19.050781 4.90625 -21.21875 C 6.957031 -23.394531 9.890625 -24.484375 13.703125 -24.484375 C 17.328125 -24.484375 20.125 -23.535156 22.09375 -21.640625 C 24.070312 -19.753906 25.0625 -17.035156 25.0625 -13.484375 L 25.0625 -9.796875 L 10.21875 -9.796875 C 10.269531 -8.453125 10.757812 -7.394531 11.6875 -6.625 C 12.613281 -5.863281 13.878906 -5.484375 15.484375 -5.484375 C 16.941406 -5.484375 18.28125 -5.617188 19.5 -5.890625 C 20.726562 -6.171875 22.054688 -6.644531 23.484375 -7.3125 L 23.484375 -1.34375 C 22.179688 -0.675781 20.835938 -0.21875 19.453125 0.03125 C 18.066406 0.289062 16.410156 0.421875 14.484375 0.421875 Z M 14 -18.84375 C 13.019531 -18.84375 12.203125 -18.535156 11.546875 -17.921875 C 10.890625 -17.304688 10.503906 -16.335938 10.390625 -15.015625 L 17.515625 -15.015625 C 17.492188 -16.179688 17.164062 -17.109375 16.53125 -17.796875 C 15.90625 -18.492188 15.0625 -18.84375 14 -18.84375 Z M 14 -18.84375 "/></g></g><g transform="translate(254.020007, 267.91901)"><g><path d="M 10.921875 -13.53125 C 11.921875 -15.132812 12.773438 -16.378906 13.484375 -17.265625 L 18.875 -24.0625 L 28.140625 -24.0625 L 19.796875 -13.828125 L 28.671875 0 L 19.1875 0 L 13.90625 -8.625 L 11.21875 -6.5625 L 11.21875 0 L 2.875 0 L 2.875 -33.046875 L 11.21875 -33.046875 L 11.21875 -20.046875 C 11.21875 -17.828125 11.0625 -15.65625 10.75 -13.53125 Z M 10.921875 -13.53125 "/></g></g></g><g fill="#000000" fill-opacity="1"><g transform="translate(120.161129, 286.769014)"><g><path d="M 6.09375 -10.1875 C 4.75 -10.1875 3.691406 -9.753906 2.921875 -8.890625 C 2.148438 -8.035156 1.765625 -6.863281 1.765625 -5.375 C 1.765625 -3.84375 2.125 -2.65625 2.84375 -1.8125 C 3.570312 -0.96875 4.613281 -0.546875 5.96875 -0.546875 C 6.863281 -0.546875 7.6875 -0.660156 8.4375 -0.890625 L 8.4375 -0.234375 C 7.738281 0.015625 6.859375 0.140625 5.796875 0.140625 C 4.285156 0.140625 3.097656 -0.34375 2.234375 -1.3125 C 1.367188 -2.28125 0.9375 -3.640625 0.9375 -5.390625 C 0.9375 -6.472656 1.144531 -7.425781 1.5625 -8.25 C 1.976562 -9.082031 2.570312 -9.722656 3.34375 -10.171875 C 4.113281 -10.628906 5.015625 -10.859375 6.046875 -10.859375 C 7.085938 -10.859375 8.019531 -10.664062 8.84375 -10.28125 L 8.546875 -9.609375 C 7.765625 -9.992188 6.945312 -10.1875 6.09375 -10.1875 Z M 6.09375 -10.1875 "/></g></g><g transform="translate(129.477535, 286.769014)"><g><path d="M 6.171875 0 L 5.984375 -1.265625 L 5.921875 -1.265625 C 5.523438 -0.742188 5.113281 -0.378906 4.6875 -0.171875 C 4.269531 0.0351562 3.769531 0.140625 3.1875 0.140625 C 2.40625 0.140625 1.796875 -0.0546875 1.359375 -0.453125 C 0.929688 -0.859375 0.71875 -1.410156 0.71875 -2.109375 C 0.71875 -2.890625 1.039062 -3.492188 1.6875 -3.921875 C 2.332031 -4.359375 3.269531 -4.585938 4.5 -4.609375 L 6.015625 -4.65625 L 6.015625 -5.171875 C 6.015625 -5.929688 5.859375 -6.503906 5.546875 -6.890625 C 5.242188 -7.273438 4.75 -7.46875 4.0625 -7.46875 C 3.320312 -7.46875 2.554688 -7.265625 1.765625 -6.859375 L 1.5 -7.484375 C 2.375 -7.890625 3.238281 -8.09375 4.09375 -8.09375 C 4.96875 -8.09375 5.617188 -7.863281 6.046875 -7.40625 C 6.484375 -6.957031 6.703125 -6.253906 6.703125 -5.296875 L 6.703125 0 Z M 3.234375 -0.515625 C 4.085938 -0.515625 4.757812 -0.753906 5.25 -1.234375 C 5.738281 -1.722656 5.984375 -2.398438 5.984375 -3.265625 L 5.984375 -4.046875 L 4.59375 -3.984375 C 3.476562 -3.929688 2.679688 -3.757812 2.203125 -3.46875 C 1.722656 -3.175781 1.484375 -2.71875 1.484375 -2.09375 C 1.484375 -1.59375 1.632812 -1.203125 1.9375 -0.921875 C 2.25 -0.648438 2.679688 -0.515625 3.234375 -0.515625 Z M 3.234375 -0.515625 "/></g></g><g transform="translate(137.424312, 286.769014)"><g><path d="M 4.46875 -8.109375 C 4.800781 -8.109375 5.160156 -8.078125 5.546875 -8.015625 L 5.40625 -7.3125 C 5.082031 -7.394531 4.738281 -7.4375 4.375 -7.4375 C 3.695312 -7.4375 3.140625 -7.148438 2.703125 -6.578125 C 2.273438 -6.003906 2.0625 -5.273438 2.0625 -4.390625 L 2.0625 0 L 1.328125 0 L 1.328125 -7.96875 L 1.953125 -7.96875 L 2.015625 -6.53125 L 2.078125 -6.53125 C 2.398438 -7.113281 2.742188 -7.519531 3.109375 -7.75 C 3.484375 -7.988281 3.9375 -8.109375 4.46875 -8.109375 Z M 4.46875 -8.109375 "/></g></g><g transform="translate(143.261714, 286.769014)"><g/></g><g transform="translate(147.158198, 286.769014)"><g><path d="M 7.96875 -7.625 C 7.96875 -6.59375 7.613281 -5.800781 6.90625 -5.25 C 6.207031 -4.695312 5.210938 -4.421875 3.921875 -4.421875 L 2.265625 -4.421875 L 2.265625 0 L 1.515625 0 L 1.515625 -10.703125 L 4.140625 -10.703125 C 6.691406 -10.703125 7.96875 -9.675781 7.96875 -7.625 Z M 2.265625 -5.0625 L 3.734375 -5.0625 C 4.941406 -5.0625 5.8125 -5.257812 6.34375 -5.65625 C 6.882812 -6.0625 7.15625 -6.710938 7.15625 -7.609375 C 7.15625 -8.429688 6.898438 -9.039062 6.390625 -9.4375 C 5.878906 -9.832031 5.09375 -10.03125 4.03125 -10.03125 L 2.265625 -10.03125 Z M 2.265625 -5.0625 "/></g></g><g transform="translate(155.932612, 286.769014)"><g><path d="M 6.171875 0 L 5.984375 -1.265625 L 5.921875 -1.265625 C 5.523438 -0.742188 5.113281 -0.378906 4.6875 -0.171875 C 4.269531 0.0351562 3.769531 0.140625 3.1875 0.140625 C 2.40625 0.140625 1.796875 -0.0546875 1.359375 -0.453125 C 0.929688 -0.859375 0.71875 -1.410156 0.71875 -2.109375 C 0.71875 -2.890625 1.039062 -3.492188 1.6875 -3.921875 C 2.332031 -4.359375 3.269531 -4.585938 4.5 -4.609375 L 6.015625 -4.65625 L 6.015625 -5.171875 C 6.015625 -5.929688 5.859375 -6.503906 5.546875 -6.890625 C 5.242188 -7.273438 4.75 -7.46875 4.0625 -7.46875 C 3.320312 -7.46875 2.554688 -7.265625 1.765625 -6.859375 L 1.5 -7.484375 C 2.375 -7.890625 3.238281 -8.09375 4.09375 -8.09375 C 4.96875 -8.09375 5.617188 -7.863281 6.046875 -7.40625 C 6.484375 -6.957031 6.703125 -6.253906 6.703125 -5.296875 L 6.703125 0 Z M 3.234375 -0.515625 C 4.085938 -0.515625 4.757812 -0.753906 5.25 -1.234375 C 5.738281 -1.722656 5.984375 -2.398438 5.984375 -3.265625 L 5.984375 -4.046875 L 4.59375 -3.984375 C 3.476562 -3.929688 2.679688 -3.757812 2.203125 -3.46875 C 1.722656 -3.175781 1.484375 -2.71875 1.484375 -2.09375 C 1.484375 -1.59375 1.632812 -1.203125 1.9375 -0.921875 C 2.25 -0.648438 2.679688 -0.515625 3.234375 -0.515625 Z M 3.234375 -0.515625 "/></g></g><g transform="translate(163.879389, 286.769014)"><g><path d="M 4.46875 -8.109375 C 4.800781 -8.109375 5.160156 -8.078125 5.546875 -8.015625 L 5.40625 -7.3125 C 5.082031 -7.394531 4.738281 -7.4375 4.375 -7.4375 C 3.695312 -7.4375 3.140625 -7.148438 2.703125 -6.578125 C 2.273438 -6.003906 2.0625 -5.273438 2.0625 -4.390625 L 2.0625 0 L 1.328125 0 L 1.328125 -7.96875 L 1.953125 -7.96875 L 2.015625 -6.53125 L 2.078125 -6.53125 C 2.398438 -7.113281 2.742188 -7.519531 3.109375 -7.75 C 3.484375 -7.988281 3.9375 -8.109375 4.46875 -8.109375 Z M 4.46875 -8.109375 "/></g></g><g transform="translate(169.716791, 286.769014)"><g><path d="M 3.4375 -0.5 C 3.894531 -0.5 4.296875 -0.535156 4.640625 -0.609375 L 4.640625 -0.03125 C 4.285156 0.0820312 3.878906 0.140625 3.421875 0.140625 C 2.710938 0.140625 2.191406 -0.046875 1.859375 -0.421875 C 1.523438 -0.796875 1.359375 -1.382812 1.359375 -2.1875 L 1.359375 -7.328125 L 0.1875 -7.328125 L 0.1875 -7.75 L 1.359375 -8.09375 L 1.734375 -9.890625 L 2.109375 -9.890625 L 2.109375 -7.96875 L 4.4375 -7.96875 L 4.4375 -7.328125 L 2.109375 -7.328125 L 2.109375 -2.296875 C 2.109375 -1.679688 2.210938 -1.226562 2.421875 -0.9375 C 2.640625 -0.644531 2.976562 -0.5 3.4375 -0.5 Z M 3.4375 -0.5 "/></g></g><g transform="translate(174.741204, 286.769014)"><g><path d="M 6.265625 -2.078125 C 6.265625 -1.359375 5.992188 -0.804688 5.453125 -0.421875 C 4.910156 -0.046875 4.144531 0.140625 3.15625 0.140625 C 2.082031 0.140625 1.234375 -0.0195312 0.609375 -0.34375 L 0.609375 -1.125 C 1.410156 -0.726562 2.257812 -0.53125 3.15625 -0.53125 C 3.9375 -0.53125 4.53125 -0.660156 4.9375 -0.921875 C 5.34375 -1.179688 5.546875 -1.53125 5.546875 -1.96875 C 5.546875 -2.363281 5.382812 -2.695312 5.0625 -2.96875 C 4.738281 -3.25 4.207031 -3.519531 3.46875 -3.78125 C 2.664062 -4.070312 2.101562 -4.316406 1.78125 -4.515625 C 1.457031 -4.722656 1.210938 -4.957031 1.046875 -5.21875 C 0.890625 -5.488281 0.8125 -5.8125 0.8125 -6.1875 C 0.8125 -6.78125 1.0625 -7.25 1.5625 -7.59375 C 2.0625 -7.9375 2.757812 -8.109375 3.65625 -8.109375 C 4.519531 -8.109375 5.335938 -7.945312 6.109375 -7.625 L 5.84375 -6.96875 C 5.0625 -7.289062 4.332031 -7.453125 3.65625 -7.453125 C 3.007812 -7.453125 2.492188 -7.34375 2.109375 -7.125 C 1.734375 -6.914062 1.546875 -6.617188 1.546875 -6.234375 C 1.546875 -5.828125 1.691406 -5.5 1.984375 -5.25 C 2.285156 -5 2.863281 -4.71875 3.71875 -4.40625 C 4.4375 -4.144531 4.957031 -3.910156 5.28125 -3.703125 C 5.613281 -3.503906 5.859375 -3.269531 6.015625 -3 C 6.179688 -2.738281 6.265625 -2.429688 6.265625 -2.078125 Z M 6.265625 -2.078125 "/></g></g><g transform="translate(181.728509, 286.769014)"><g/></g><g transform="translate(185.624993, 286.769014)"><g><path d="M 10.046875 0 L 9.4375 0 L 7.078125 -8.265625 C 6.890625 -8.941406 6.742188 -9.5 6.640625 -9.9375 C 6.566406 -9.507812 6.457031 -9.019531 6.3125 -8.46875 C 6.164062 -7.914062 5.378906 -5.09375 3.953125 0 L 3.3125 0 L 0.375 -10.703125 L 1.15625 -10.703125 L 3.03125 -3.8125 C 3.101562 -3.53125 3.171875 -3.269531 3.234375 -3.03125 C 3.296875 -2.800781 3.351562 -2.582031 3.40625 -2.375 C 3.457031 -2.164062 3.503906 -1.960938 3.546875 -1.765625 C 3.585938 -1.578125 3.625 -1.382812 3.65625 -1.1875 C 3.78125 -1.851562 4.03125 -2.863281 4.40625 -4.21875 L 6.234375 -10.703125 L 7.0625 -10.703125 L 9.21875 -3.25 C 9.46875 -2.394531 9.644531 -1.703125 9.75 -1.171875 C 9.8125 -1.523438 9.890625 -1.898438 9.984375 -2.296875 C 10.085938 -2.691406 10.84375 -5.492188 12.25 -10.703125 L 13.015625 -10.703125 Z M 10.046875 0 "/></g></g><g transform="translate(199.006339, 286.769014)"><g><path d="M 6.890625 0 L 6.890625 -5.15625 C 6.890625 -5.957031 6.71875 -6.539062 6.375 -6.90625 C 6.039062 -7.269531 5.519531 -7.453125 4.8125 -7.453125 C 3.863281 -7.453125 3.164062 -7.210938 2.71875 -6.734375 C 2.28125 -6.253906 2.0625 -5.472656 2.0625 -4.390625 L 2.0625 0 L 1.328125 0 L 1.328125 -11.390625 L 2.0625 -11.390625 L 2.0625 -7.765625 L 2.015625 -6.75 L 2.078125 -6.75 C 2.367188 -7.226562 2.738281 -7.570312 3.1875 -7.78125 C 3.644531 -8 4.210938 -8.109375 4.890625 -8.109375 C 6.703125 -8.109375 7.609375 -7.140625 7.609375 -5.203125 L 7.609375 0 Z M 6.890625 0 "/></g></g><g transform="translate(207.853995, 286.769014)"><g><path d="M 7.921875 -3.984375 C 7.921875 -2.691406 7.601562 -1.679688 6.96875 -0.953125 C 6.34375 -0.222656 5.472656 0.140625 4.359375 0.140625 C 3.660156 0.140625 3.046875 -0.0234375 2.515625 -0.359375 C 1.984375 -0.691406 1.578125 -1.171875 1.296875 -1.796875 C 1.015625 -2.429688 0.875 -3.160156 0.875 -3.984375 C 0.875 -5.285156 1.1875 -6.296875 1.8125 -7.015625 C 2.445312 -7.742188 3.3125 -8.109375 4.40625 -8.109375 C 5.5 -8.109375 6.359375 -7.738281 6.984375 -7 C 7.609375 -6.269531 7.921875 -5.265625 7.921875 -3.984375 Z M 1.640625 -3.984375 C 1.640625 -2.890625 1.878906 -2.035156 2.359375 -1.421875 C 2.835938 -0.816406 3.515625 -0.515625 4.390625 -0.515625 C 5.273438 -0.515625 5.957031 -0.816406 6.4375 -1.421875 C 6.914062 -2.035156 7.15625 -2.890625 7.15625 -3.984375 C 7.15625 -5.085938 6.910156 -5.941406 6.421875 -6.546875 C 5.941406 -7.148438 5.257812 -7.453125 4.375 -7.453125 C 3.5 -7.453125 2.820312 -7.148438 2.34375 -6.546875 C 1.875 -5.941406 1.640625 -5.085938 1.640625 -3.984375 Z M 1.640625 -3.984375 "/></g></g><g transform="translate(216.643057, 286.769014)"><g><path d="M 2.0625 0 L 1.328125 0 L 1.328125 -11.390625 L 2.0625 -11.390625 Z M 2.0625 0 "/></g></g><g transform="translate(220.03417, 286.769014)"><g><path d="M 4.546875 0.140625 C 3.390625 0.140625 2.488281 -0.210938 1.84375 -0.921875 C 1.195312 -1.640625 0.875 -2.640625 0.875 -3.921875 C 0.875 -5.191406 1.1875 -6.207031 1.8125 -6.96875 C 2.4375 -7.726562 3.28125 -8.109375 4.34375 -8.109375 C 5.28125 -8.109375 6.019531 -7.78125 6.5625 -7.125 C 7.101562 -6.476562 7.375 -5.59375 7.375 -4.46875 L 7.375 -3.875 L 1.640625 -3.875 C 1.640625 -2.78125 1.890625 -1.945312 2.390625 -1.375 C 2.898438 -0.800781 3.617188 -0.515625 4.546875 -0.515625 C 5.003906 -0.515625 5.40625 -0.546875 5.75 -0.609375 C 6.09375 -0.671875 6.523438 -0.804688 7.046875 -1.015625 L 7.046875 -0.359375 C 6.597656 -0.160156 6.179688 -0.03125 5.796875 0.03125 C 5.421875 0.101562 5.003906 0.140625 4.546875 0.140625 Z M 4.34375 -7.46875 C 3.570312 -7.46875 2.953125 -7.210938 2.484375 -6.703125 C 2.023438 -6.203125 1.753906 -5.476562 1.671875 -4.53125 L 6.59375 -4.53125 C 6.59375 -5.445312 6.390625 -6.164062 5.984375 -6.6875 C 5.585938 -7.207031 5.039062 -7.46875 4.34375 -7.46875 Z M 4.34375 -7.46875 "/></g></g><g transform="translate(228.266592, 286.769014)"><g><path d="M 6.265625 -2.078125 C 6.265625 -1.359375 5.992188 -0.804688 5.453125 -0.421875 C 4.910156 -0.046875 4.144531 0.140625 3.15625 0.140625 C 2.082031 0.140625 1.234375 -0.0195312 0.609375 -0.34375 L 0.609375 -1.125 C 1.410156 -0.726562 2.257812 -0.53125 3.15625 -0.53125 C 3.9375 -0.53125 4.53125 -0.660156 4.9375 -0.921875 C 5.34375 -1.179688 5.546875 -1.53125 5.546875 -1.96875 C 5.546875 -2.363281 5.382812 -2.695312 5.0625 -2.96875 C 4.738281 -3.25 4.207031 -3.519531 3.46875 -3.78125 C 2.664062 -4.070312 2.101562 -4.316406 1.78125 -4.515625 C 1.457031 -4.722656 1.210938 -4.957031 1.046875 -5.21875 C 0.890625 -5.488281 0.8125 -5.8125 0.8125 -6.1875 C 0.8125 -6.78125 1.0625 -7.25 1.5625 -7.59375 C 2.0625 -7.9375 2.757812 -8.109375 3.65625 -8.109375 C 4.519531 -8.109375 5.335938 -7.945312 6.109375 -7.625 L 5.84375 -6.96875 C 5.0625 -7.289062 4.332031 -7.453125 3.65625 -7.453125 C 3.007812 -7.453125 2.492188 -7.34375 2.109375 -7.125 C 1.734375 -6.914062 1.546875 -6.617188 1.546875 -6.234375 C 1.546875 -5.828125 1.691406 -5.5 1.984375 -5.25 C 2.285156 -5 2.863281 -4.71875 3.71875 -4.40625 C 4.4375 -4.144531 4.957031 -3.910156 5.28125 -3.703125 C 5.613281 -3.503906 5.859375 -3.269531 6.015625 -3 C 6.179688 -2.738281 6.265625 -2.429688 6.265625 -2.078125 Z M 6.265625 -2.078125 "/></g></g><g transform="translate(235.253896, 286.769014)"><g><path d="M 6.171875 0 L 5.984375 -1.265625 L 5.921875 -1.265625 C 5.523438 -0.742188 5.113281 -0.378906 4.6875 -0.171875 C 4.269531 0.0351562 3.769531 0.140625 3.1875 0.140625 C 2.40625 0.140625 1.796875 -0.0546875 1.359375 -0.453125 C 0.929688 -0.859375 0.71875 -1.410156 0.71875 -2.109375 C 0.71875 -2.890625 1.039062 -3.492188 1.6875 -3.921875 C 2.332031 -4.359375 3.269531 -4.585938 4.5 -4.609375 L 6.015625 -4.65625 L 6.015625 -5.171875 C 6.015625 -5.929688 5.859375 -6.503906 5.546875 -6.890625 C 5.242188 -7.273438 4.75 -7.46875 4.0625 -7.46875 C 3.320312 -7.46875 2.554688 -7.265625 1.765625 -6.859375 L 1.5 -7.484375 C 2.375 -7.890625 3.238281 -8.09375 4.09375 -8.09375 C 4.96875 -8.09375 5.617188 -7.863281 6.046875 -7.40625 C 6.484375 -6.957031 6.703125 -6.253906 6.703125 -5.296875 L 6.703125 0 Z M 3.234375 -0.515625 C 4.085938 -0.515625 4.757812 -0.753906 5.25 -1.234375 C 5.738281 -1.722656 5.984375 -2.398438 5.984375 -3.265625 L 5.984375 -4.046875 L 4.59375 -3.984375 C 3.476562 -3.929688 2.679688 -3.757812 2.203125 -3.46875 C 1.722656 -3.175781 1.484375 -2.71875 1.484375 -2.09375 C 1.484375 -1.59375 1.632812 -1.203125 1.9375 -0.921875 C 2.25 -0.648438 2.679688 -0.515625 3.234375 -0.515625 Z M 3.234375 -0.515625 "/></g></g><g transform="translate(243.200673, 286.769014)"><g><path d="M 2.0625 0 L 1.328125 0 L 1.328125 -11.390625 L 2.0625 -11.390625 Z M 2.0625 0 "/></g></g><g transform="translate(246.591786, 286.769014)"><g><path d="M 4.546875 0.140625 C 3.390625 0.140625 2.488281 -0.210938 1.84375 -0.921875 C 1.195312 -1.640625 0.875 -2.640625 0.875 -3.921875 C 0.875 -5.191406 1.1875 -6.207031 1.8125 -6.96875 C 2.4375 -7.726562 3.28125 -8.109375 4.34375 -8.109375 C 5.28125 -8.109375 6.019531 -7.78125 6.5625 -7.125 C 7.101562 -6.476562 7.375 -5.59375 7.375 -4.46875 L 7.375 -3.875 L 1.640625 -3.875 C 1.640625 -2.78125 1.890625 -1.945312 2.390625 -1.375 C 2.898438 -0.800781 3.617188 -0.515625 4.546875 -0.515625 C 5.003906 -0.515625 5.40625 -0.546875 5.75 -0.609375 C 6.09375 -0.671875 6.523438 -0.804688 7.046875 -1.015625 L 7.046875 -0.359375 C 6.597656 -0.160156 6.179688 -0.03125 5.796875 0.03125 C 5.421875 0.101562 5.003906 0.140625 4.546875 0.140625 Z M 4.34375 -7.46875 C 3.570312 -7.46875 2.953125 -7.210938 2.484375 -6.703125 C 2.023438 -6.203125 1.753906 -5.476562 1.671875 -4.53125 L 6.59375 -4.53125 C 6.59375 -5.445312 6.390625 -6.164062 5.984375 -6.6875 C 5.585938 -7.207031 5.039062 -7.46875 4.34375 -7.46875 Z M 4.34375 -7.46875 "/></g></g></g></svg>